<svg xmlns="http://www.w3.org/2000/svg" version="1.1" xmlns:xlink="http://www.w3.org/1999/xlink" xmlns:svgjs="http://svgjs.com/svgjs" width="1440" height="560" preserveAspectRatio="none" viewBox="0 0 1440 560">
    <g mask="url(&quot;#SvgjsMask1003&quot;)" fill="none">
        <path d="M820 347L819 729" stroke-width="8" stroke="url(#SvgjsLinearGradient1004)" stroke-linecap="round" class="Up"></path>
        <path d="M866 169L865 -90" stroke-width="10" stroke="url(#SvgjsLinearGradient1005)" stroke-linecap="round" class="Down"></path>
        <path d="M724 366L723 94" stroke-width="10" stroke="url(#SvgjsLinearGradient1004)" stroke-linecap="round" class="Up"></path>
        <path d="M221 6L220 202" stroke-width="10" stroke="url(#SvgjsLinearGradient1004)" stroke-linecap="round" class="Up"></path>
        <path d="M1167 401L1166 74" stroke-width="10" stroke="url(#SvgjsLinearGradient1005)" stroke-linecap="round" class="Down"></path>
        <path d="M972 457L971 841" stroke-width="10" stroke="url(#SvgjsLinearGradient1005)" stroke-linecap="round" class="Down"></path>
        <path d="M581 139L580 -106" stroke-width="8" stroke="url(#SvgjsLinearGradient1005)" stroke-linecap="round" class="Down"></path>
        <path d="M942 113L941 -282" stroke-width="6" stroke="url(#SvgjsLinearGradient1005)" stroke-linecap="round" class="Down"></path>
        <path d="M1269 99L1268 389" stroke-width="8" stroke="url(#SvgjsLinearGradient1005)" stroke-linecap="round" class="Down"></path>
        <path d="M904 124L903 -259" stroke-width="10" stroke="url(#SvgjsLinearGradient1005)" stroke-linecap="round" class="Down"></path>
        <path d="M755 502L754 671" stroke-width="8" stroke="url(#SvgjsLinearGradient1005)" stroke-linecap="round" class="Down"></path>
        <path d="M786 258L785 98" stroke-width="6" stroke="url(#SvgjsLinearGradient1005)" stroke-linecap="round" class="Down"></path>
        <path d="M1279 410L1278 801" stroke-width="10" stroke="url(#SvgjsLinearGradient1005)" stroke-linecap="round" class="Down"></path>
        <path d="M164 373L163 169" stroke-width="6" stroke="url(#SvgjsLinearGradient1004)" stroke-linecap="round" class="Up"></path>
        <path d="M259 492L258 287" stroke-width="10" stroke="url(#SvgjsLinearGradient1005)" stroke-linecap="round" class="Down"></path>
        <path d="M783 404L782 117" stroke-width="6" stroke="url(#SvgjsLinearGradient1005)" stroke-linecap="round" class="Down"></path>
        <path d="M503 29L502 252" stroke-width="6" stroke="url(#SvgjsLinearGradient1005)" stroke-linecap="round" class="Down"></path>
        <path d="M1247 279L1246 680" stroke-width="10" stroke="url(#SvgjsLinearGradient1004)" stroke-linecap="round" class="Up"></path>
        <path d="M1392 180L1391 385" stroke-width="8" stroke="url(#SvgjsLinearGradient1005)" stroke-linecap="round" class="Down"></path>
        <path d="M1117 356L1116 540" stroke-width="10" stroke="url(#SvgjsLinearGradient1004)" stroke-linecap="round" class="Up"></path>
        <path d="M917 281L916 101" stroke-width="10" stroke="url(#SvgjsLinearGradient1005)" stroke-linecap="round" class="Down"></path>
        <path d="M720 381L719 15" stroke-width="6" stroke="url(#SvgjsLinearGradient1004)" stroke-linecap="round" class="Up"></path>
        <path d="M790 32L789 -173" stroke-width="10" stroke="url(#SvgjsLinearGradient1004)" stroke-linecap="round" class="Up"></path>
        <path d="M799 387L798 548" stroke-width="8" stroke="url(#SvgjsLinearGradient1005)" stroke-linecap="round" class="Down"></path>
        <path d="M276 105L275 524" stroke-width="10" stroke="url(#SvgjsLinearGradient1004)" stroke-linecap="round" class="Up"></path>
        <path d="M411 48L410 422" stroke-width="10" stroke="url(#SvgjsLinearGradient1004)" stroke-linecap="round" class="Up"></path>
        <path d="M297 516L296 776" stroke-width="8" stroke="url(#SvgjsLinearGradient1005)" stroke-linecap="round" class="Down"></path>
        <path d="M801 423L800 232" stroke-width="8" stroke="url(#SvgjsLinearGradient1004)" stroke-linecap="round" class="Up"></path>
        <path d="M469 324L468 125" stroke-width="8" stroke="url(#SvgjsLinearGradient1005)" stroke-linecap="round" class="Down"></path>
        <path d="M1034 548L1033 858" stroke-width="6" stroke="url(#SvgjsLinearGradient1004)" stroke-linecap="round" class="Up"></path>
        <path d="M1114 68L1113 -214" stroke-width="8" stroke="url(#SvgjsLinearGradient1005)" stroke-linecap="round" class="Down"></path>
        <path d="M520 457L519 850" stroke-width="6" stroke="url(#SvgjsLinearGradient1005)" stroke-linecap="round" class="Down"></path>
        <path d="M1215 3L1214 -206" stroke-width="6" stroke="url(#SvgjsLinearGradient1005)" stroke-linecap="round" class="Down"></path>
        <path d="M1233 473L1232 134" stroke-width="8" stroke="url(#SvgjsLinearGradient1005)" stroke-linecap="round" class="Down"></path>
        <path d="M565 392L564 14" stroke-width="6" stroke="url(#SvgjsLinearGradient1004)" stroke-linecap="round" class="Up"></path>
        <path d="M1327 22L1326 368" stroke-width="10" stroke="url(#SvgjsLinearGradient1005)" stroke-linecap="round" class="Down"></path>
    </g>
    <defs>
        <mask id="SvgjsMask1003">
            <rect width="1440" height="560" fill="#ffffff"></rect>
        </mask>
        <linearGradient x1="0%" y1="100%" x2="0%" y2="0%" id="SvgjsLinearGradient1004">
            <stop stop-color="rgba(28, 83, 142, 0)" offset="0"></stop>
            <stop stop-color="#1c538e" offset="1"></stop>
        </linearGradient>
        <linearGradient x1="0%" y1="0%" x2="0%" y2="100%" id="SvgjsLinearGradient1005">
            <stop stop-color="rgba(28, 83, 142, 0)" offset="0"></stop>
            <stop stop-color="#1c538e" offset="1"></stop>
        </linearGradient>
    </defs>
</svg>